<?xml version="1.0" encoding="UTF-8"?>
<svg id="Ebene_2" data-name="Ebene 2" xmlns="http://www.w3.org/2000/svg" viewBox="0 0 1200 359.92">
  <g id="Ebene_1-2" data-name="Ebene 1">
    <path d="m1200,240.59c-2.89,1.39-5.39,2.59-6.37,3.06-2.46-5.47-4.8-10.54-7.02-15.66-2.28-5.25-7.35-10.5.12-16.26-4.07-4.06-8.09-8.07-12.38-12.35,1.68-1.22,3.11-2.26,4.8-3.49-2.31-1.49-5.93-3.06-5.77-3.85,1.93-9.31-6.18-11.94-10.48-17.23-1.91-2.35-1.69-6.44-2.44-9.74,2.65.48,5.3.96,7.11,1.29,3.8-4.68,7.39-9.1,9.96-12.26-7.42-3.11-14.57-6.12-21.8-9.15,4.13-5.08,6.76-8.32,8.76-10.8-.75-4.35-1.47-8.58-2.27-13.21-2.31-.54-5.65-1.31-7.95-1.84-.3-5.05-.58-9.71-.88-14.63.81-.22,2.78-.76,5.01-1.37-2.86-1.98-6.22-3.04-7.12-5.15-4.18-9.85-9.09-19.5-9.73-30.57-.19-3.31-1.96-6.54-2.98-9.7-1.41.07-5.12.57-5.2.22-.96-4.14-1.37-8.41-1.98-12.96-.07.03-1.4.53-2.62.98-1.78-4.7-3.53-9.33-5.32-14.07-3.21,2.27,1.29,10.69-5.46,7.31-2.03,6.28-2.29,15.04-6.18,17.18-5.77,3.17-6.1,4.2-3.6,9.64.66,1.43-4.49,6.01-7.54,8.45-1.26,1.01-4,.17-4.36.17-.26,13.45,1.79,26.23-9.95,35.76,1.1.89,2.38,1.93,3.42,2.78-1.94,3.17-3.71,6.06-5.97,9.76,2.88-.26,4.11-.37,5.34-.48-1.89,2.89-3.91,5.71-5.66,8.69-2.26,3.86-4.32,7.84-6.46,11.77-.68,1.25-1.33,2.52-2,3.78-.79-1.02-1.47-2.16-2.39-3.05-4.52-4.35-6.31-12.18-14.96-11.4-1.53.14-3.25-1.84-4.03-2.31,2.92-5.97,5.54-11.33,7.3-14.94-5.5-3.42-10.4-5.19-13.3-8.63-2.79-3.32-3.53-8.38-5.69-14.03,3.35-1.05,8.81-2.77,14.27-4.48-.03-.76-.06-1.53-.09-2.29-7.37-2.2-12.9-5.91-11.95-13.49-4.64-1.32-8.47-2.4-11.27-3.19,4.72-6.04,9.19-11.77,14.04-17.97h-18.47c.71-6.92,1.34-13,1.93-18.78-2.6-.79-6.04-1.83-9.42-2.85,1.2-4.92,2.17-8.92,2.57-10.57-4.92-5.23-8.68-9.22-12.05-12.8-2,2.25-4.13,4.37-5.91,6.76-1.34,1.81-3.64,4.55-3.09,5.88,3.66,8.8-2.22,9.36-10.01,9.73,4.04,4.11,6.93,7.05,9.93,10.1-.35.68-2.68,3.96-2.2,4.43,4.71,4.69.08,6.22-2.66,7.4-5.49,2.37-11.29,4.02-17.05,5.99,1.03,2.55,2.55,6.52,4.27,10.41,1.2,2.71,2.66,5.31,4.01,7.95-3.63.63-7.25,1.34-10.9,1.85-1.3.18-2.67-.14-5.67-.35,6.57,6.32,5.21,11.74.19,16.73,5.36,2.13,9.91,3.94,15.95,6.35-10.1,5.62-19.38,10.79-29.15,16.24q8.69,8.6,3.69,13.7c.45,6.43,2.63,12.24.63,15.35-2.59,4.03-8.53,5.91-14.61,9.71,11.2,3.42,2.33,9.19,3.8,15.34,4.72-1.69,9.07-3.24,13.42-4.79.58.38,1.16.76,1.75,1.13-5.28,6.3-10.56,12.61-15.27,18.22-3.22-2.2-5.93-4.05-9.47-6.47-5.51,14.81-17.22,15.15-29.44,13.6-1.41-.18-2.45-3.21-4.3-5.83,3.26.32,4.54.44,5.82.56-.62-.51-1.24-1.03-1.87-1.54,2.67-4.69,5.35-9.39,7.73-13.57-3.32-1.56-6.68-3.14-10.05-4.73,2.14-3.71,4.27-7.43,6.38-11.09-1.87-.71-4.35-1.64-6.45-2.43,2.33-6.52,4.37-12.24,6.16-17.25-5.8,1.28-11.09,2.77-16.49,3.45-1.64.21-3.55-1.81-5.34-2.8,1.6-1.57,3.15-3.22,4.84-4.68.63-.55,2.22-.52,2.36-1.04,2-7.17,3.82-14.38,5.4-20.5h-19.25c2.58-9.84,4.91-18.73,7.24-27.63-12.68,4.71-16.1,2.2-16.9-9.46-2.24-3.46-4.48-6.93-7.21-11.15-1.72,7.54-3.27,14.36-4.88,21.44-1.75-.32-4.53-.83-7.55-1.38,1.78,7.77,3.35,14.61,5.35,23.33-7.28-1.69-13.09-3.03-19.74-4.57,2.32,5.81,4.81,12.05,7.19,18.02-11.29,6.55,4.78,9.63,2.99,16.37-6.26-1.06-12.67-2.15-20.82-3.54,3.3,2.86,5.16,4.47,7.36,6.38-1.96,1.3-3.53,2.33-5.75,3.8,3.89,1.11,7.05,2.01,10.8,3.09-3.83,4.21-7.36,8.09-11.8,12.97,3.77.54,5.97.86,8.36,1.2-3.59,5.88-3.7,5.89-20.18,2.37-.79.77-1.57,1.54-2.36,2.31,3.41,3.32,6.82,6.63,10.96,10.67-.08.1-.51,2.18.32,3.41,9.4,13.85,8.3,16.72-7.97,19.83-.4.08-.7.69-2.08,2.14,5.92,6.38,11.89,12.81,18.45,19.89-1.68,1.11-3.8,2.51-5.91,3.9.31.84.63,1.68.94,2.52,4.93-.66,9.86-1.32,16.73-2.25-3.5,5.59-6.14,9.81-9.24,14.76,7.79,1.58,17.74.96,17.4,14.72-6.26-11.08-8.02-1.93-10.29.3-2.45-1.43-5.24-3.98-6.18-3.42-1.99,1.19-3.4,3.84-4.37,6.17-1.63,3.94-2.73,8.11-4.63,13.96-2.55-6.55-4.05-10.39-5.76-14.75.42-1.14,2.2-3.53,1.84-5.54-.88-4.97-2.68-9.8-4.23-14.64-1.68-5.23-3.5-10.41-5.92-17.58-4.4,9.85-7.82,17.49-11.91,26.65-1.38-.1-4.79-.34-7.89-.55,2.09-16.28-10.23-25.5-15.27-38.96-2.79,6.23-5.08,11.11-7.17,16.07-2.11,5.01-6.22,10.44-5.52,15.09,1.06,7.06-1.55,9.99-4.8,13.2-1.81,5.26-3.63,10.52-5.86,16.99.11.1,2.14,1.91,4.26,3.82-3.3,4.65-9.59,8.37-3.66,14.84-8.12,4.94-2.95,10.12.31,14.94-4.99,3.3-9.34,6.19-13.7,9.07-.38-.52-.75-1.05-1.13-1.57,2.18-2.34,4.37-4.67,6.89-7.37-4.22-2.29-7.55-4.1-11.19-6.08,2.51-2.3,4.23-3.88,6.29-5.77-2.88-2.14-5.13-3.81-7.57-5.62,1.35-2.04,2.5-3.76,2.93-4.41-4.64-7.4-8.68-13.84-13.6-21.7-6.98,14.31-12.65,27.39-13.06,42.59-1.23.26-3.34.69-6.62,1.38,3.65,2.81,6.38,4.91,10.17,7.84-5.76.45-9.99.77-16.58,1.28,4.13,2.58,6.13,3.83,9.2,5.75-5.03,2.02-13.09,1.78-6.34,10.03-8.35,2.65-15.94,5.07-21.97,6.99-1.48-4.71-2.67-8.51-4.18-13.34-2,3.04-4.64,5.2-4.52,7.19.49,8.05-4.86,9.1-10.69,10.32-26.79,5.62-53.7,6.18-80.68,1.75-5.39-.89-12.56,1.12-13.31-8.75-.18-2.34-3.25-3.95-2.31-8.85.88-4.58-5.4-10.53-9.13-16.9-2.72,5.83-5.21,11.31-7.84,16.72-1.58,3.25-3.4,6.4-5.11,9.59-2.22-2.31-5.22-4.27-6.47-7.02-2.3-5.05-3.57-10.57-5.71-17.31-3.8,7.3-6.77,12.99-10.14,19.47-.25-2.27-.39-3.57-.53-4.85-9.42,5.1-20.57,1.51-25.53-3.3-6.99-6.78-8.98-18.72-13.17-28.59-2.64,7.2-5.27,14.35-8.64,23.54-2.85-9.21-4.92-15.93-7.75-25.08-3.36,7.18-5.5,11.75-7.9,16.89-2.89-8.42-5.47-15.95-8.33-24.29-2.95,6.7-5.56,12.63-9.28,21.08-5.32-14.69-9.78-27.03-14.49-40.05-3.09,7.67-5.81,14.42-9.23,22.92-3-8.42-5.24-14.71-7.76-21.8-3.28,7.47-6.07,13.8-9.76,22.19-4.7-13.03-8.76-24.26-13.58-37.61,12.38,8.47,14.57-1.98,18.43-7.56-6.86-2.01-14.06-4.11-21.25-6.21.22-.79.44-1.58.66-2.37,2.43-.61,4.87-1.23,5.81-1.47.98-3.29,2.67-5.83,2.01-7.38-1.96-4.64,6.12-12.25-5.01-14.6,5.23-.91,9.97.13,13.89-1.21,3.79-1.3,6.74-5.05,11.53-8.91-14.5,2.73-23.02,1.43-26.35-12.25,3.97-1.44,8.05-2.92,12.52-4.54-6.64-2.07-12.73-3.97-17.31-5.4-.83-3.74-1.37-6.18-1.95-8.81,4.49-2.58,9.04-5.21,14.73-8.48-5.46-.74-9.43-1.28-14.15-1.91,4.83-6.51,8.99-12.09,12.27-16.51-4.37-.21-10.42.18-16.19-.94-7.45-1.43-7.74-3-4.69-10.29.33-.78-1.02-2.26-1.65-3.53h5.99c-3.64-2.32-6.36-4.05-10.15-6.48,3-2.44,5-4.06,6.57-5.33-3.47-.72-7.27-1.52-11.7-2.44,3.8-4.89,6.91-8.9,9.12-11.74-5.31-.89-10.71-1.79-16.11-2.7,1.51-2.41,3.03-4.82,5.17-8.23-4.11-.91-7.84-1.74-11.46-2.55v-7.46c2.04-.66,4.35-1.41,7.6-2.47-3.99-1.67-6.97-2.91-10.86-4.53,2.98-2.71,5.22-4.75,6.61-6.01-3.13-4.45-6.11-8.71-9.42-13.41-.8,3.19-1.45,5.84-2.27,9.1-2.24-1.38-3.91-2.4-7.04-4.32,2.54,4.95,4.16,8.13,5.98,11.68h-7.3c7.9,7.22,7.63,7.79-6.49,13.01,5.17,3.13,9.47,5.74,13.76,8.34-.27.67-.54,1.33-.8,2h-18.57c1.77,3.22,4.02,6.03,4.66,9.17.22,1.05-3.66,2.94-5.54,4.35,2.64,1.24,5.62,2.66,11.08,5.23-9.14,2.93-15.82,5.08-22.65,7.27,3.58,3.13,7.77,6.79,12.82,11.21-5.47,2.88-10.71,5.64-15.81,8.32,2.86,1.83,5.81,3.71,8.77,5.6-.04.9-.08,1.79-.12,2.69-6.24,1.7-12.47,3.39-20.1,5.47,6.87,3.49,12.54,6.36,18.23,9.25-5.65,9.52-8.49,10.83-24,11.72-11.62.67-5.3-12.36-11.78-15.55-3.94,5-7.81,9.91-11.62,14.75.9.58,2.55,1.67,4.86,3.17-8.32,5.68-9.17-4.26-14-4.46.36-1.76.71-3.51,1.24-6.11-6.51-2.77-13.54-5.76-19.54-8.31q2.37-1.59,19.47,1.78c-3.4-2.08-6.8-4.16-10.48-6.42,4.85-2.14,9.21-4.07,15.62-6.9-6.9-1.65-13.06,5.16-15.9-3.83-1.49-4.72-5.21-8.73-7.94-13.09,2.23-.98,4.27-1.87,5.89-2.58-6.73-1.63-13.23-3.08-19.64-4.83-3.05-.83-5.95-2.24-8.91-3.41-2.48-.98-5.96-1.38-7.08-3.21-.86-1.4,1.28-4.63,1.74-5.99,5.29,1.71,9.71,3.15,14.13,4.58-.41,1.42-1.02,3.5-1.84,6.32,8.96-5.13,16.88-9.67,24.03-13.77-8.73-1.3-17.52-2.6-26.32-3.91.14-.58.28-1.15.41-1.73,5-1.76,10-3.53,15-5.29l-.89-2.32c-15.18,1.26-27.02-5.61-26.51-15.02,3.46,2.67,7.11,5.48,11.26,8.69,8.37-14.07-7.13-17.49-10.54-26.49q8.25,4.9,13.32-.19c-13.48.12-8.58-13.34-14.82-20.05.32,14-10.51,20.92-17.36,31.98,3.67-2.96,5.73-4.68,7.86-6.32,2.01-1.56,4.09-3.03,6.14-4.54.55.59,1.11,1.19,1.66,1.78-6.59,8.61-13.17,17.22-19.72,25.78,5.33-1.44,11.24-3.03,17.15-4.62.52.59,1.03,1.18,1.55,1.77-5.79,5.35-11.59,10.71-17.39,16.08,2.48.79,4.59,1.46,7.69,2.45-11.04,7.15-23.07,7.23-30.1.71,3.86-.49,7.38-.95,12.43-1.59-3.25-2.22-5.22-3.55-7.75-5.28,2.41-1.96,4.25-3.46,6.35-5.16q-8.88-1.96-14.5-12.49c4.51-1.98,9.09-3.99,14.13-6.2-5.73-.4-10.84.27-15.08-1.34-4.05-1.54-7.27-5.08-12.29-4.01-.53.11-1.49-1.75-2.25-2.7,1.17-.47,2.3-1.23,3.5-1.37,3.31-.37,6.64-.49,10.26-.72-2.72-3.2-4.89-5.77-6.88-8.11,2.67-3.49,5.1-6.66,7.53-9.84-1.69-.53-2.21-.07-2.74.36-4.43,3.57-14.96,2.74-15.17-1.15,1.79-1.25,3.57-2.49,6.1-4.25-3.15-.73-4.98-1.16-8.15-1.9,2.22-1.48,3.36-2.25,4.02-2.69-3-3.28-5.73-6.28-8.64-9.46,3.37-.93,6.12-1.69,6.83-1.89-3.52-2.96-7.9-5.43-10.45-9.16-2.16-3.16-2.21-7.78-3.27-12.02-3.23,4.23-8.5,8.77-7.7,10.45,5,10.53-3.65,8.02-6.93,8.76.34,3.96,2.04,9.02.6,10.17-2.71,2.18-7.22,2.11-11.58,3.11,3.23,1.42,7.03,3.09,10.82,4.76.19.6.39,1.19.58,1.79-7.92.93-15.84,1.86-25.01,2.93,5.18,4.65,10.35,9.3,15.53,13.95.25-.56.5-1.12.75-1.68,1.06,4.59,2.12,9.17,3.51,15.15-5.96,1.49-13.14,3.29-19.49,4.88,1.24.89,3.83,2.76,6.42,4.63-.16.73-.32,1.45-.48,2.18h-16.87c-.76,3.76-1.37,6.81-2.04,10.16-1.71-.44-4.16-1.07-6.62-1.7-.23.63-.47,1.27-.7,1.9,4.22,1.47,8.44,2.94,11.52,4.02-.58,4.54-.98,7.73-1.39,10.97,6.37.16,13.19-5.43,17.28,1.06-8.07,10.23-18.42,14.38-31.29,11.95.12.97.23,1.94.35,2.91,4.86,1,9.72,1.99,14.52,2.98-8.61,11.99-17.19,10.55-24.39-2.45.91-6.51,1.57-11.25,2.01-14.38-4.1-2.15-9.19-3.17-11.04-6.17-2.95-4.79-3.74-10.9-5.98-18.2-3.31,9.34-5.81,16.39-8.55,24.12-1.02.36-4.06,1.42-7.1,2.48.81.33,1.61.66,2.42,1-.15,2.22.54,5.25-.64,6.46-1.91,1.96-5.05,2.73-8.06,4.19,1.79,1.02,4.44,2.52,9.41,5.35-8.32,2.47-14.58,4.34-20.85,6.2-.02.54-.04,1.09-.05,1.63h16.06l.19,2.14c-2.15,1.43-4.31,2.86-6.65,4.42,1.69,1.22,2.89,2.09,4.09,2.95-5.45,4.09-10.89,8.18-16.33,12.27,1.11.73,3.3,2.17,5.67,3.73-1.93,1.15-3.31,1.97-4.25,2.53,2.41,2.57,4.49,4.78,6.57,6.99-2.63,1.35-5.16,2.99-7.92,3.96-2.47.88-5.13,1.24-7.3,1.65v.95c5.63,5.44,11.21,10.83,16.78,16.22-.51.83-1.01,1.67-1.52,2.5H0v13.74c1.28.94,2.51,1.8,3.8,2.55,4.94,2.9,10.08,5.47,15.49,8.37-6.48,4.27-12.15,10.9-19.29,14.61v13.62c.54.53,1.07,1.05,1.63,1.59-.57.47-1.1.92-1.63,1.35v108.23h1200v-104.66c-4.61-2.63-1.58-8.73,0-14.57v-.09ZM97.58,145.05c-5.16,1.57-10.14,3.97-15.4,4.88-3.03.53-6.45-1.19-9.69-1.89.11-1.27.23-2.54.34-3.82,4.2,0,8.53.64,12.54-.21,3.02-.64,5.55-3.37,8.48-4.81,1.26-.62,3.46-.97,4.38-.28,1.91,1.41,3.25,3.6,4.83,5.46-1.83.2-3.75.13-5.49.66Zm88.88,73.46c-3.84-2.86-6.4-4.76-11-8.18,5.89-1.28,9.76-2.13,15.14-3.3-1.43,3.97-2.47,6.85-4.15,11.49Zm7.01-67.96c-2.82.35-5.52,1.75-10.25,3.33,1.86-5.73,3.37-10.4,4.84-14.9,5.48-1.47,11.17-3,16.92-4.55,3.3,11.38,1.22,14.52-11.51,16.12Zm8.02-26.5c-7.43,7.61-15.87,9.56-25.36,2.5,1.38-10.62,13.45-5.77,18.09-12.05-4.57.75-9.13,1.51-16.04,2.65,10.92-9.14,14.88-9.1,20.07-1.31,2.18-.82,4.44-1.66,6.7-2.51.74.5,1.48,1,2.22,1.5-1.86,3.11-3.22,6.7-5.68,9.22Zm9.1,2.7c.25-.95,1.95-2.27,2.9-2.17,6.78.71,13.54,1.74,20.3,2.66-.18,1.29-.36,2.58-.54,3.87-6.89-.46-13.78-.83-20.65-1.51-.82-.08-2.2-2.09-2-2.85Zm38.65,49.88c-11.67-6.34-28.05-1.52-37.58-15.6,15.49.33,26.93,7.07,37.58,15.6Zm-36.41-.28c5.43,1.95,10.93,3.93,17.6,6.33,1.51,4.2,2.44,10,10.2,7.51.55-.18,2.13,2.85,4.04,5.5-25.56-2.26-32.35-6.69-31.85-19.33Zm36.84,43.75c-2.61,2.51-5.88,4.34-9.65,7.02-1.74-2.14-4.17-5.13-6.6-8.12-3.18,2.65-6.26,5.22-10.35,8.63-.28-3.54-.43-5.41-.59-7.38-1.75.94-3.4,1.81-5.28,2.82-3.03-15.22-3.02-15.1,11.21-15.72,5.6-.24,11.3-2.09,16.7-1.35,3.51.48,6.93,3.97,9.5,6.9.5.57-2.79,5.12-4.95,7.19Zm43.41-25.52c-2.67-5.29-3.91-11.34-5.35-17.18-.2-.82,1.32-2.77,2.33-3.01,1.39-.33,3.47-.04,4.53.85,3.39,2.85,6.45,6.09,10.38,9.91-1.54,1.36-4.09,3.6-7.29,6.42,2.22.76,3.85,1.32,5.5,1.88-.2.53-.38,1.44-.57,1.44-3.31.03-8.84,1.07-9.54-.3Zm19.6,42.94c-1.55.26-2.44,3.51-3.96,5.04-1.18,1.19-2.96,2.65-4.32,2.5-1.03-.11-1.82-2.54-2.72-3.95-2.02-3.17-4.03-6.34-6.18-9.72,7.68-2.17,17.09-4.83,26.48-7.48,1.49,6.4-.07,12.03-9.3,13.6Zm69.23,32.54c-4.57-3.81-8.91-7.43-11.56-9.63-4.89,0-8.95,1.22-10.9-.28-3.07-2.37-4.72-6.57-7.6-10.96,14.03,2.25,25.24,4.05,36.53,5.87-1.99,4.61-4.06,9.42-6.48,15.01Zm506.28-23.01c-2.01-2.53-4.03-5.07-6.62-8.32,6.27-.93,10.41-1.54,14.54-2.16.43.69.87,1.38,1.3,2.07-3.07,2.8-6.15,5.61-9.22,8.41Zm35.26-5.97c-4.42,1.53-8.47,2.93-14.33,4.96-2.94-2.18-6.97-5.18-12.83-9.53,4.91-1.41,7.95-2.16,10.91-3.17,2.01-.69,4.59-1.21,5.71-2.71,5.42-7.24,9.97-5.55,14.67.66.66.87,2.28,1.02,4.99,2.15-4.26.36-6.73.57-9.68.82.24,2.85.43,5.17.57,6.82Zm.64-24.81c-4.62-2.67-8.78-5.07-12.93-7.47q5.33-9.64,21.75-.65c-3.17,2.92-6.34,5.84-8.82,8.12Zm56.92,8.94c-1.8,7.8-6.27,10.5-14.56,5.5,2.51-1.6,4.57-2.91,7.67-4.88-4.14-2.54-6.21-3.81-9.31-5.72,2.41-3.16,4.42-6.96,7.47-9.49,3.99-3.3,8.81-5.58,13.27-8.3-1.33,6.79-2.7,14.89-4.54,22.88Zm18.34,7.62c1.08-5.88,1.79-9.8,2.34-12.78-3.22-2.23-5.98-4.14-8.75-6.06.46-.76.92-1.52,1.38-2.29h8.84c1.31,7.28,4.11,13.92-3.81,21.12Zm23.25.04c-.56-7.43-1.03-13.59-1.52-20.18,9.75,6.25,9.87,7.47,1.52,20.18Zm35.7-3.97c-1.01,2-3.49,3.27-5.3,4.87-1.77-2.1-4.36-3.94-5.13-6.36-1.29-4.04-1.41-8.46-1.81-11.18,6.34-2.91,12.54-5.76,18.74-8.6.56.91,1.13,1.81,1.69,2.72-2.69,6.2-5.16,12.52-8.2,18.55Zm2.45-67.27c2.73-8.37,10.86-11.76,26.54-10.14-3.69,2.94-6.38,5.09-9.67,7.71,1.08,1.44,2.27,3.01,3.7,4.9-7.98,6.99-14.33,2.78-20.56-2.48Zm27.92,86.45c-.63.33-6.88.5-3.54-4.7.3-.46-1.54-2.01-1.86-3.2-.87-3.19-2.54-6.77-1.72-9.56.43-1.46,5.43-1.56,8.37-2.28.52,3.02,1.15,6.02,1.49,9.06.12,1.05-.49,2.17-1.01,4.26,2.19-.35,3.41-.54,4.63-.73.29.45.58.9.87,1.35-2.37,2.02-4.56,4.37-7.24,5.8Zm89.49-20.96c-1.94,4.29-4.54,8.28-8.34,14.94-3.01-7.15-5.15-12.22-7.24-17.18,4.08-1.26,6.79-2.26,9.59-2.89,1.63-.36,4.09-.82,4.93.02,1.07,1.06,1.68,3.76,1.07,5.11Z" style="stroke-width: 0px; fill:#3a7864"/>
  </g>
</svg>